<mxfile host="app.diagrams.net" modified="2021-10-26T10:34:43.239Z" agent="5.0 (Windows NT 10.0; Win64; x64) AppleWebKit/537.36 (KHTML, like Gecko) Chrome/94.0.4606.81 Safari/537.36" etag="0hw_IU-rRdoXrbj1nhgC" version="15.5.9" type="github">
  <diagram id="qoT9MYY9_t4PGDL6Biyj" name="Page-1">
    <mxGraphModel dx="3671" dy="1524" grid="1" gridSize="10" guides="1" tooltips="1" connect="1" arrows="1" fold="1" page="1" pageScale="1" pageWidth="827" pageHeight="1169" math="0" shadow="0">
      <root>
        <mxCell id="0" />
        <mxCell id="1" parent="0" />
        <mxCell id="MguBmSjYfqDdbDr2_ZBg-59" value="" style="rounded=0;whiteSpace=wrap;html=1;fontSize=16;fontColor=#000000;strokeWidth=2;fillColor=none;dashed=1;strokeColor=#CDA2BE;" vertex="1" parent="1">
          <mxGeometry x="190" y="500" width="430" height="360" as="geometry" />
        </mxCell>
        <mxCell id="MguBmSjYfqDdbDr2_ZBg-56" value="" style="rounded=0;whiteSpace=wrap;html=1;fontSize=16;fontColor=#000000;strokeWidth=2;fillColor=none;dashed=1;strokeColor=#CDA2BE;" vertex="1" parent="1">
          <mxGeometry x="-340" y="500" width="480" height="600" as="geometry" />
        </mxCell>
        <mxCell id="MguBmSjYfqDdbDr2_ZBg-3" style="edgeStyle=orthogonalEdgeStyle;rounded=0;orthogonalLoop=1;jettySize=auto;html=1;exitX=0.5;exitY=1;exitDx=0;exitDy=0;exitPerimeter=0;entryX=0.5;entryY=0;entryDx=0;entryDy=0;entryPerimeter=0;fontSize=16;strokeWidth=2;" edge="1" parent="1" source="MguBmSjYfqDdbDr2_ZBg-1" target="MguBmSjYfqDdbDr2_ZBg-2">
          <mxGeometry relative="1" as="geometry" />
        </mxCell>
        <mxCell id="MguBmSjYfqDdbDr2_ZBg-1" value="应用&lt;br style=&quot;font-size: 16px;&quot;&gt;启动" style="strokeWidth=2;html=1;shape=mxgraph.flowchart.start_2;whiteSpace=wrap;fillColor=none;fontSize=16;" vertex="1" parent="1">
          <mxGeometry x="120" y="40" width="80" height="80" as="geometry" />
        </mxCell>
        <mxCell id="MguBmSjYfqDdbDr2_ZBg-15" style="edgeStyle=orthogonalEdgeStyle;rounded=0;orthogonalLoop=1;jettySize=auto;html=1;exitX=1;exitY=0.5;exitDx=0;exitDy=0;exitPerimeter=0;shadow=0;labelBorderColor=none;fontSize=16;endArrow=classic;endFill=1;strokeWidth=2;" edge="1" parent="1" source="MguBmSjYfqDdbDr2_ZBg-2">
          <mxGeometry relative="1" as="geometry">
            <mxPoint x="320" y="240" as="targetPoint" />
          </mxGeometry>
        </mxCell>
        <mxCell id="MguBmSjYfqDdbDr2_ZBg-21" style="edgeStyle=orthogonalEdgeStyle;rounded=0;orthogonalLoop=1;jettySize=auto;html=1;exitX=0.5;exitY=1;exitDx=0;exitDy=0;exitPerimeter=0;entryX=0.5;entryY=0;entryDx=0;entryDy=0;entryPerimeter=0;shadow=0;labelBorderColor=none;fontSize=16;endArrow=classic;endFill=1;strokeWidth=2;" edge="1" parent="1" source="MguBmSjYfqDdbDr2_ZBg-2" target="MguBmSjYfqDdbDr2_ZBg-20">
          <mxGeometry relative="1" as="geometry" />
        </mxCell>
        <mxCell id="MguBmSjYfqDdbDr2_ZBg-2" value="上次登录uid不为空&lt;br&gt;且开启了自动登录" style="strokeWidth=2;html=1;shape=mxgraph.flowchart.decision;whiteSpace=wrap;fillColor=none;fontSize=16;" vertex="1" parent="1">
          <mxGeometry x="40" y="200" width="240" height="80" as="geometry" />
        </mxCell>
        <mxCell id="MguBmSjYfqDdbDr2_ZBg-7" value="自动登录流程" style="shape=process;whiteSpace=wrap;html=1;backgroundOutline=1;fontSize=16;fillColor=none;strokeWidth=2;" vertex="1" parent="1">
          <mxGeometry x="360" y="280" width="240" height="80" as="geometry" />
        </mxCell>
        <mxCell id="MguBmSjYfqDdbDr2_ZBg-9" value="进入闪屏页或主界面" style="rounded=1;whiteSpace=wrap;html=1;absoluteArcSize=1;arcSize=14;strokeWidth=2;fontSize=16;fillColor=none;" vertex="1" parent="1">
          <mxGeometry x="360" y="120" width="240" height="80" as="geometry" />
        </mxCell>
        <mxCell id="MguBmSjYfqDdbDr2_ZBg-13" style="edgeStyle=orthogonalEdgeStyle;rounded=0;orthogonalLoop=1;jettySize=auto;html=1;fontSize=16;entryX=0;entryY=0.5;entryDx=0;entryDy=0;strokeWidth=2;" edge="1" parent="1" target="MguBmSjYfqDdbDr2_ZBg-9">
          <mxGeometry relative="1" as="geometry">
            <mxPoint x="320" y="240" as="targetPoint" />
            <mxPoint x="320" y="240" as="sourcePoint" />
            <Array as="points">
              <mxPoint x="340" y="240" />
              <mxPoint x="340" y="160" />
            </Array>
          </mxGeometry>
        </mxCell>
        <mxCell id="MguBmSjYfqDdbDr2_ZBg-11" value="" style="endArrow=none;html=1;rounded=0;fontSize=16;shape=link;labelBorderColor=none;shadow=0;strokeWidth=2;" edge="1" parent="1">
          <mxGeometry width="50" height="50" relative="1" as="geometry">
            <mxPoint x="320" y="320" as="sourcePoint" />
            <mxPoint x="320" y="160" as="targetPoint" />
          </mxGeometry>
        </mxCell>
        <mxCell id="MguBmSjYfqDdbDr2_ZBg-14" style="edgeStyle=orthogonalEdgeStyle;rounded=0;orthogonalLoop=1;jettySize=auto;html=1;fontSize=16;entryX=0;entryY=0.5;entryDx=0;entryDy=0;strokeWidth=2;" edge="1" parent="1" target="MguBmSjYfqDdbDr2_ZBg-7">
          <mxGeometry relative="1" as="geometry">
            <mxPoint x="320" y="240" as="targetPoint" />
            <mxPoint x="320" y="240" as="sourcePoint" />
            <Array as="points">
              <mxPoint x="340" y="240" />
              <mxPoint x="340" y="320" />
            </Array>
          </mxGeometry>
        </mxCell>
        <mxCell id="MguBmSjYfqDdbDr2_ZBg-29" value="手机号一键登录&lt;br style=&quot;font-size: 16px;&quot;&gt;短信验证码登录" style="edgeStyle=orthogonalEdgeStyle;rounded=0;orthogonalLoop=1;jettySize=auto;html=1;exitX=0.5;exitY=1;exitDx=0;exitDy=0;exitPerimeter=0;shadow=0;labelBorderColor=none;fontSize=16;fontColor=#000000;endArrow=classic;endFill=1;strokeWidth=2;entryX=0;entryY=0.5;entryDx=0;entryDy=0;" edge="1" parent="1" source="MguBmSjYfqDdbDr2_ZBg-20" target="MguBmSjYfqDdbDr2_ZBg-28">
          <mxGeometry x="0.4375" relative="1" as="geometry">
            <Array as="points">
              <mxPoint x="160" y="560" />
            </Array>
            <mxPoint as="offset" />
          </mxGeometry>
        </mxCell>
        <mxCell id="MguBmSjYfqDdbDr2_ZBg-32" value="&lt;font color=&quot;#000000&quot; style=&quot;font-size: 16px&quot;&gt;帐号密码登录&lt;/font&gt;" style="edgeStyle=orthogonalEdgeStyle;rounded=0;orthogonalLoop=1;jettySize=auto;html=1;exitX=0.5;exitY=1;exitDx=0;exitDy=0;exitPerimeter=0;entryX=0;entryY=0.5;entryDx=0;entryDy=0;shadow=0;labelBorderColor=none;fontSize=12;fontColor=#3399FF;endArrow=classic;endFill=1;strokeWidth=2;" edge="1" parent="1" source="MguBmSjYfqDdbDr2_ZBg-20" target="MguBmSjYfqDdbDr2_ZBg-30">
          <mxGeometry x="0.5455" relative="1" as="geometry">
            <mxPoint as="offset" />
          </mxGeometry>
        </mxCell>
        <mxCell id="MguBmSjYfqDdbDr2_ZBg-33" value="&lt;font color=&quot;#000000&quot; style=&quot;font-size: 16px&quot;&gt;三方登录&lt;br&gt;无上次登录&lt;/font&gt;" style="edgeStyle=orthogonalEdgeStyle;rounded=0;orthogonalLoop=1;jettySize=auto;html=1;exitX=0.5;exitY=1;exitDx=0;exitDy=0;exitPerimeter=0;entryX=0;entryY=0.5;entryDx=0;entryDy=0;shadow=0;labelBorderColor=none;fontSize=12;fontColor=#3399FF;endArrow=classic;endFill=1;strokeWidth=2;" edge="1" parent="1" source="MguBmSjYfqDdbDr2_ZBg-20" target="MguBmSjYfqDdbDr2_ZBg-31">
          <mxGeometry x="0.6429" relative="1" as="geometry">
            <Array as="points">
              <mxPoint x="160" y="800" />
            </Array>
            <mxPoint as="offset" />
          </mxGeometry>
        </mxCell>
        <mxCell id="MguBmSjYfqDdbDr2_ZBg-37" value="首次启动" style="edgeStyle=orthogonalEdgeStyle;rounded=0;orthogonalLoop=1;jettySize=auto;html=1;exitX=0.5;exitY=1;exitDx=0;exitDy=0;exitPerimeter=0;shadow=0;labelBackgroundColor=default;labelBorderColor=none;fontSize=16;fontColor=#000000;endArrow=classic;endFill=1;strokeWidth=2;entryX=1;entryY=0.5;entryDx=0;entryDy=0;" edge="1" parent="1" source="MguBmSjYfqDdbDr2_ZBg-20" target="MguBmSjYfqDdbDr2_ZBg-36">
          <mxGeometry x="0.375" relative="1" as="geometry">
            <mxPoint as="offset" />
          </mxGeometry>
        </mxCell>
        <mxCell id="MguBmSjYfqDdbDr2_ZBg-39" value="手机号密码登录" style="edgeStyle=orthogonalEdgeStyle;rounded=0;orthogonalLoop=1;jettySize=auto;html=1;exitX=0.5;exitY=1;exitDx=0;exitDy=0;exitPerimeter=0;entryX=1;entryY=0.5;entryDx=0;entryDy=0;shadow=0;labelBackgroundColor=default;labelBorderColor=none;fontSize=16;fontColor=#000000;endArrow=classic;endFill=1;strokeWidth=2;" edge="1" parent="1" source="MguBmSjYfqDdbDr2_ZBg-20" target="MguBmSjYfqDdbDr2_ZBg-38">
          <mxGeometry x="0.5455" relative="1" as="geometry">
            <mxPoint as="offset" />
          </mxGeometry>
        </mxCell>
        <mxCell id="MguBmSjYfqDdbDr2_ZBg-41" value="短信验证码登录" style="edgeStyle=orthogonalEdgeStyle;rounded=0;orthogonalLoop=1;jettySize=auto;html=1;exitX=0.5;exitY=1;exitDx=0;exitDy=0;exitPerimeter=0;entryX=1;entryY=0.5;entryDx=0;entryDy=0;shadow=0;labelBackgroundColor=default;labelBorderColor=none;fontSize=16;fontColor=#000000;endArrow=classic;endFill=1;strokeWidth=2;" edge="1" parent="1" source="MguBmSjYfqDdbDr2_ZBg-20" target="MguBmSjYfqDdbDr2_ZBg-40">
          <mxGeometry x="0.6429" relative="1" as="geometry">
            <mxPoint as="offset" />
          </mxGeometry>
        </mxCell>
        <mxCell id="MguBmSjYfqDdbDr2_ZBg-43" value="帐号密码登录" style="edgeStyle=orthogonalEdgeStyle;rounded=0;orthogonalLoop=1;jettySize=auto;html=1;exitX=0.5;exitY=1;exitDx=0;exitDy=0;exitPerimeter=0;entryX=1;entryY=0.5;entryDx=0;entryDy=0;shadow=0;labelBackgroundColor=default;labelBorderColor=none;fontSize=16;fontColor=#000000;endArrow=classic;endFill=1;strokeWidth=2;" edge="1" parent="1" source="MguBmSjYfqDdbDr2_ZBg-20" target="MguBmSjYfqDdbDr2_ZBg-42">
          <mxGeometry x="0.7059" relative="1" as="geometry">
            <mxPoint as="offset" />
          </mxGeometry>
        </mxCell>
        <mxCell id="MguBmSjYfqDdbDr2_ZBg-46" style="edgeStyle=orthogonalEdgeStyle;rounded=0;orthogonalLoop=1;jettySize=auto;html=1;exitX=0.5;exitY=1;exitDx=0;exitDy=0;exitPerimeter=0;entryX=1;entryY=0.5;entryDx=0;entryDy=0;entryPerimeter=0;shadow=0;labelBackgroundColor=default;labelBorderColor=none;fontSize=16;fontColor=#000000;endArrow=classic;endFill=1;strokeWidth=2;" edge="1" parent="1" source="MguBmSjYfqDdbDr2_ZBg-20" target="MguBmSjYfqDdbDr2_ZBg-45">
          <mxGeometry relative="1" as="geometry">
            <Array as="points">
              <mxPoint x="160" y="1040" />
            </Array>
          </mxGeometry>
        </mxCell>
        <mxCell id="MguBmSjYfqDdbDr2_ZBg-20" value="判断上一次登录方式" style="strokeWidth=2;html=1;shape=mxgraph.flowchart.decision;whiteSpace=wrap;fillColor=none;fontSize=16;" vertex="1" parent="1">
          <mxGeometry x="40" y="360" width="240" height="80" as="geometry" />
        </mxCell>
        <mxCell id="MguBmSjYfqDdbDr2_ZBg-26" value="SplashScreenADActivity / MainActivity" style="text;html=1;strokeColor=none;fillColor=none;align=center;verticalAlign=middle;whiteSpace=wrap;rounded=0;fontSize=16;fontColor=#3399FF;" vertex="1" parent="1">
          <mxGeometry x="280" y="100" width="390" height="20" as="geometry" />
        </mxCell>
        <mxCell id="MguBmSjYfqDdbDr2_ZBg-28" value="取号登录流程" style="shape=process;whiteSpace=wrap;html=1;backgroundOutline=1;fontSize=16;fillColor=none;strokeWidth=2;" vertex="1" parent="1">
          <mxGeometry x="360" y="520" width="240" height="80" as="geometry" />
        </mxCell>
        <mxCell id="MguBmSjYfqDdbDr2_ZBg-30" value="进入帐号密码登录页面" style="shape=process;whiteSpace=wrap;html=1;backgroundOutline=1;fontSize=16;fillColor=none;strokeWidth=2;" vertex="1" parent="1">
          <mxGeometry x="360" y="640" width="240" height="80" as="geometry" />
        </mxCell>
        <mxCell id="MguBmSjYfqDdbDr2_ZBg-31" value="进入首次登录页面" style="shape=process;whiteSpace=wrap;html=1;backgroundOutline=1;fontSize=16;fillColor=none;strokeWidth=2;" vertex="1" parent="1">
          <mxGeometry x="360" y="760" width="240" height="80" as="geometry" />
        </mxCell>
        <mxCell id="MguBmSjYfqDdbDr2_ZBg-36" value="进入首次登录页面" style="shape=process;whiteSpace=wrap;html=1;backgroundOutline=1;fontSize=16;fillColor=none;strokeWidth=2;" vertex="1" parent="1">
          <mxGeometry x="-280" y="520" width="240" height="80" as="geometry" />
        </mxCell>
        <mxCell id="MguBmSjYfqDdbDr2_ZBg-38" value="进入手机号密码登录页面" style="shape=process;whiteSpace=wrap;html=1;backgroundOutline=1;fontSize=16;fillColor=none;strokeWidth=2;" vertex="1" parent="1">
          <mxGeometry x="-280" y="640" width="240" height="80" as="geometry" />
        </mxCell>
        <mxCell id="MguBmSjYfqDdbDr2_ZBg-40" value="进入短信验证码登录页面" style="shape=process;whiteSpace=wrap;html=1;backgroundOutline=1;fontSize=16;fillColor=none;strokeWidth=2;" vertex="1" parent="1">
          <mxGeometry x="-280" y="760" width="240" height="80" as="geometry" />
        </mxCell>
        <mxCell id="MguBmSjYfqDdbDr2_ZBg-42" value="进入帐号密码登录页面" style="shape=process;whiteSpace=wrap;html=1;backgroundOutline=1;fontSize=16;fillColor=none;strokeWidth=2;" vertex="1" parent="1">
          <mxGeometry x="-280" y="880" width="240" height="80" as="geometry" />
        </mxCell>
        <mxCell id="MguBmSjYfqDdbDr2_ZBg-54" value="N" style="edgeStyle=orthogonalEdgeStyle;rounded=0;orthogonalLoop=1;jettySize=auto;html=1;exitX=0;exitY=0.5;exitDx=0;exitDy=0;exitPerimeter=0;entryX=0;entryY=0.5;entryDx=0;entryDy=0;shadow=0;labelBackgroundColor=default;labelBorderColor=none;fontSize=16;fontColor=#000000;endArrow=classic;endFill=1;strokeWidth=2;" edge="1" parent="1" source="MguBmSjYfqDdbDr2_ZBg-45" target="MguBmSjYfqDdbDr2_ZBg-42">
          <mxGeometry x="0.8" relative="1" as="geometry">
            <Array as="points">
              <mxPoint x="-320" y="1040" />
              <mxPoint x="-320" y="920" />
            </Array>
            <mxPoint as="offset" />
          </mxGeometry>
        </mxCell>
        <mxCell id="MguBmSjYfqDdbDr2_ZBg-55" value="Y" style="edgeStyle=orthogonalEdgeStyle;rounded=0;orthogonalLoop=1;jettySize=auto;html=1;exitX=0;exitY=0.5;exitDx=0;exitDy=0;exitPerimeter=0;entryX=0;entryY=0.5;entryDx=0;entryDy=0;shadow=0;labelBackgroundColor=default;labelBorderColor=none;fontSize=16;fontColor=#000000;endArrow=classic;endFill=1;strokeWidth=2;" edge="1" parent="1" source="MguBmSjYfqDdbDr2_ZBg-45" target="MguBmSjYfqDdbDr2_ZBg-40">
          <mxGeometry x="0.875" relative="1" as="geometry">
            <Array as="points">
              <mxPoint x="-320" y="1040" />
              <mxPoint x="-320" y="800" />
            </Array>
            <mxPoint as="offset" />
          </mxGeometry>
        </mxCell>
        <mxCell id="MguBmSjYfqDdbDr2_ZBg-45" value="SG或CA的IP地址" style="strokeWidth=2;html=1;shape=mxgraph.flowchart.decision;whiteSpace=wrap;fillColor=none;fontSize=16;" vertex="1" parent="1">
          <mxGeometry x="-280" y="1000" width="240" height="80" as="geometry" />
        </mxCell>
        <mxCell id="MguBmSjYfqDdbDr2_ZBg-57" value="Moomoo逻辑" style="text;html=1;strokeColor=none;fillColor=none;align=right;verticalAlign=middle;whiteSpace=wrap;rounded=0;fontSize=16;fontColor=#3399FF;" vertex="1" parent="1">
          <mxGeometry x="-100" y="480" width="240" height="20" as="geometry" />
        </mxCell>
        <mxCell id="MguBmSjYfqDdbDr2_ZBg-58" value="牛牛逻辑" style="text;html=1;strokeColor=none;fillColor=none;align=left;verticalAlign=middle;whiteSpace=wrap;rounded=0;fontSize=16;fontColor=#3399FF;" vertex="1" parent="1">
          <mxGeometry x="190" y="480" width="240" height="20" as="geometry" />
        </mxCell>
        <mxCell id="MguBmSjYfqDdbDr2_ZBg-62" style="edgeStyle=orthogonalEdgeStyle;rounded=0;orthogonalLoop=1;jettySize=auto;html=1;exitX=0.5;exitY=1;exitDx=0;exitDy=0;exitPerimeter=0;entryX=0.5;entryY=0;entryDx=0;entryDy=0;entryPerimeter=0;shadow=0;labelBackgroundColor=default;labelBorderColor=none;fontSize=16;fontColor=#000000;endArrow=classic;endFill=1;strokeWidth=2;" edge="1" parent="1" source="MguBmSjYfqDdbDr2_ZBg-60" target="MguBmSjYfqDdbDr2_ZBg-61">
          <mxGeometry relative="1" as="geometry" />
        </mxCell>
        <mxCell id="MguBmSjYfqDdbDr2_ZBg-60" value="取号登录流程" style="strokeWidth=2;html=1;shape=mxgraph.flowchart.start_2;whiteSpace=wrap;fillColor=none;fontSize=16;" vertex="1" parent="1">
          <mxGeometry x="1280" y="40" width="80" height="80" as="geometry" />
        </mxCell>
        <mxCell id="MguBmSjYfqDdbDr2_ZBg-61" value="通过移动SDK获取&lt;br&gt;当前运营商类型" style="strokeWidth=2;html=1;shape=mxgraph.flowchart.decision;whiteSpace=wrap;fillColor=none;fontSize=16;" vertex="1" parent="1">
          <mxGeometry x="1200" y="200" width="240" height="80" as="geometry" />
        </mxCell>
        <mxCell id="MguBmSjYfqDdbDr2_ZBg-63" value="" style="shape=image;verticalLabelPosition=bottom;labelBackgroundColor=#ffffff;verticalAlign=top;aspect=fixed;imageAspect=0;image=data:image/png,iVBORw0KGgoAAAANSUhEUgAAAUcAAAKWCAYAAADaw1t8AAAgAElEQVR4Ae2dCbQc1X3mUZzEsZ3EdrxkPEkm40xOfJJJcpxMZuzYYLwAJmCMTRJjjGNM4jhhXwzGiB2BMAgjiFgkEAKJVZgdsUuAQEgswixCbAKhBW1o3/f3n/Pvx+13X3X13q/eV9W/e06fqq66deu7v6/669q6ehejQAACEIBABYFdKqYwAQIQgAAEjHBkI4AABCCQQoBwTIHCJAhAAAKEI9sABCAAgRQChGMKFCZBAAIQIBzZBiAAAQikECAcU6AwCQIQgADhyDYAAQhAIIUA4ZgChUkQgAAECEe2AQhAAAIpBAjHFChMggAEIEA4sg1AAAIQSCFAOKZAYRIEIAABwpFtAAIQgEAKAcIxBQqTIAABCBCObAMQgAAEUggQjilQmAQBCECAcGQbgAAEIJBCgHBMgcIkCEAAAoQj2wAEIACBFAKEYwoUJkEAAhAgHNkGIAABCKQQIBxToDAJAhCAAOHINgABCEAghQDhmAKFSRCAAAQIR7YBCEAAAikECMcUKEyCAAQgQDiyDUAAAhBIIUA4pkBhEgQgAAHCkW0AAhCAQAoBwjEFCpMgAAEIEI5sAxCAAARSCBCOKVCYBAEIQIBwZBuAAAQgkEKAcEyBwiQIQAAChCPbAAQgAIEUAoRjChQmQQACECAc2QYgAAEIpBAgHFOgMGkACfTsNFu90Gz+s2YzrjW75Viz/9rT7LQ/MTvxY2ZH/obZMR80O+m/mZ3152ZjDjC7+zSzWfeYLZ5ltmHFAIqjaQj0ESAc+1gwNhAEFs82e+Ris2F/ZXbch80O/zWzw3Zp7+UBesLHzC7b1+z5W83WLhkI5bTZ5QQIxy7fADre/e1bzGbd27sneMT72gvBZkL0qPebXb6f2aKXzXp6Ot4tGuw+AoRj93ne+R77ofKcx83O/LPO7Bk2E4ppdY/+LbMx3zZb/lbn+0qLXUOAcOwaqwego1vWm912otlRv5XdHmJaGNaadsLHzV6+38wDnAKBJggQjk3Aoup7BDat7T2EbeX84RG/bnbc75qd+Ineiy4//aTZCb9nNtCH4H6RZ/o4s507sBECDREgHBvCRKUSgW2bzMYd3Pih808+ajbyK2a/utVs5Xwz39NMllULzEZ80eywIdnsfR77IbPnbzMzzksmreB9fwKEY38evKtG4Onre2+zqXUI6/N8r/COk8zWLa3WUu/0javMhv1lNoGYpvmk3zdbOa+2RuZ2NQHCsavtb6Dzaxb3XnlOC5jytCG9QbfwhfoN7thmNv4HgxeKZc3v3U509XfNXBMFAgkChGMCCG8jAlNG1g8xv1l7/fJooRqjfvX46A/UbzMZYAP93s9HrppfQzizupEA4diNrtfr87bNZud+tnaIHf9Rs7kz6rXUN/++s7M7r9hSmA4xm3RGn17Gup4A4dj1m0ACgO8F+n2CtQJm7IGJheq8vXiP2u3VWlfW8/w8KAUCZkY4shn0EXj5vtoh5j/be+Oxvvr1xnbuNBv+t7XbzDr8Glmf32a0cXW93jG/4AQIx4Ib3HD3pl5RO8T8nka/7abh0mN2xmdqt9lIUA1WHf8i2Lym4d5SsXgECMfiedp8j0rnA2s8DOJnnzLz30w3XHrMLv5qfoMxBLJ/IfhvtSldSYBw7Erbo07XC8bjfqfJYDSzO0/OfzCWA3KI2do692xGOBktDgHCsTheNt+Tyb+oHWL+U7+m9hjNzO91DMFSlKHvQS6f2zxflsg1AcIx1/a1If6VB+uH2GtTml+BP5mnKKEY98Pvz6R0FQHCsavsfq+zi2bVD7BTP908GX/yTRwoRRsvnWLY2jwXlsglAcIxl7a1KbqRX6m8/kgLK+kx80PxooVi3J+Ldm+BC4vkkQDhmEfXWtXsT8j+6ScaC69W13Hhbo21HwdO3sYfvqBVOiyXIwKEY47Malvq3ac0Flxnfqb1VfljzVp5zmPeAvLdOa0zYslcECAcc2FTB0T603UafWbi+EPaW+GKt3sfXZa3wGtGr//BF/9V0952Ir404ShuUEfk+YWSY3+7sb1GD4jbTujAanvMJp1pdnhGD7FtJtg6VffmIzrAiSZUCRCOqs50UtddDR5Oh9CYeGTn1r51o5k/qCK0XbTh8jc7x4qWpAgQjlJ2DICY0jnAJvfeRu3deSGb15qd8sfFC8nT/qTzrGhRggDhKGHDAIq4cNfmA8kfWTZQ5fVHe/9Qq0h7kG9NHyhatDuIBAjHQYQ/4KtetbD5YAyhNdB/ZXr/ucW5qn3kbw64lawgewKEY/bMs1vjeX/XejjecvTA6/RD7SsPaPwqeghuxaH/wyKlUAQIx0LZGXVm3bLWgzGEz/aMfirnF238XwvDevM49L+hpRSKAOFYKDujzly+X/thM+aAqMEMRmc/oH8+0m9NOvHj6Wznz8wAEqvIigDhmBXpLNezc0fnzuc9MSZL5b3rqvcotcHes/Q/IEvT4P/ESCkMAcKxMFZGHXny6vQPb9oHupFp066KGs9o1M9Hjv6W5vlIR3DHT9MZb+K/ZzLaQgZ8NYTjgCMehBUMxPm7X+xqZj3Zd2bDCjN/VFgjIZ5VHafge+dHvK9S133nZM+INQ4IAcJxQLAOYqOduBBTLWSO/ZDZzIlmA32bTxq+WZPMjv9wZRhV0zqQ04O+KRdX6vEgpxSCAOFYCBujTjwwvPID2+mg+Oknzbasi1aa4eiUiwa+f/V4he76X8+m7T3ynzOBUK6HhGOu7UsR7/+5XO/D3an5o/ZKEZDBpC3rza7Yf/DOR8ZdvO7fKnk/OiquwXhOCRCOOTUuVfbO7dk+BceDYTCL/wLopE9WhlOnwr9aO3Gf17xTuX5/oDAl9wQIx9xbGHXg7RmVH9RqH/B2p/sDbf2hFgrFz0f678Hb7VOjyyf7nDwX6ofalNwTIBxzb2HUAX/UWKMf8HbrvXR3tGKR0SzOtx7/kcrOTvhhJfdlr1fWY0quCBCOubKrjtij31/5IW03BNOW90ePqRa/QfuyfQeOw/C/qez5+uWV63t8dGU9puSKAOGYK7vqiM3qqduLXqojRGD2inlmP/vvlaGVFvbNTLvjpMrO+bneZBuX7FFZjym5IkA45squGmL91prkB3Qg3p/72Roi1Gb1mL14V2f/Lnbpq+md9J8Oxrw575jOKUdTCcccmVVT6ttP9f9wxh/Ujo0PqSlBd2aP2YRD2+fjF6F2bEvv5ogv9G/f9+IpuSZAOObavkj8U+P7fzg7Foi79LXrf5iV5zLr3r6+tMLn7L+o3vubDqtsezB+blldIXOaJEA4NglMtvovj638cLYSANWW8VtldmyX7X7Dwl68s3VOy9+qvprHRlW2u2p+9frMkSdAOMpb1KDATjy/sVow+vQ3pjYopEq1tUvMJp1udv7nzIb+D7ORXzZ7/IrBCdzxP+gLsmM+0Ddeq//+u/Ja5aV7KtvxUx2U3BIgHHNrXUK4H/LV+nC3M2/YXyVW1sRbf0jFpf9QW9tD5zfRYIeqhlCcMtJs4lG19Tm7h0fUXvGcqZVtvHBH7WWYK02AcJS2pwlx/jCIdgKw1rKrFjQhJK7aYzb0jxrT5QGaZZl6ea+u8PcGG1eZXbp3utarv2vWU+dxbW88VrnsjPFZ9oh1dZgA4dhhoIPW3DEfrPxw1gq8RueN3r+1LnmYXPD55jQ9eklr62plKX94RWDgz4wMxX8S6f/bffqfmvkVaD8d0EhJO6x+ghvBG0GnWodwVHWmWV1+m0n4sHdqeMSv9z7UtVktXn/lvOb1HPV+s6z+1Ms1nvo/ezU+e1MrPey/zKP/Vdlfn0bJLQHCMbfWJYQPxNOyn7gysZIm3o49sDIsGgntuTOaWEmbVUt/w7CL2TUHt9mQmd3w48r+Dsb/77TfE1p4jwDhWJRN4eQ/qPxwNhJG1eqc8LH2nvh98h+2pmfcQdk58uB5vRr98L/dkrwJ3Lk+NaHdVll+EAkQjoMIv6OrPuevWwujauG45JX25KU9IbvauuLpw/53e+ttZumpl/UyO/MzzSyVXjftgtiLgk8uSlfP1BQChGMKlFxOuuo7nQvHkbu3j2Boq3uO32t/3Y22cOvxvczafaJ52oMnPPDnP9uoEuoJEiAcBU1pSdLdp3YuHDvxEFs/PI73CBsdnzu9pe63tFA4FPab09sp699N76s/JZySWwKEY26tSwj3m639oQhtvzr0E8HVC9IDo1ZI+tXqag92SHS37bfOy9fnet6a1l5z4w9J72t7rbL0IBMgHAfZgEKv/qLd00OjWkD675OzKive6tV25G/Uv8G7nqa0/wnnqTz1qMnPJxzlLcqzwJ7GHzg76utmWT7FJvykcUSbV6rfnZP+BeD3iFJyTYBwzLV9ORDvh69jvl39b1T9qvZDF2TbkU2r+wLNw63V4r8C+vnf9bUV7xFf/o1WW2U5EQKEo4gRhZexcaXZI5eYDf9bM/+3vou+ZParW838Sm/WJTy124OtnTK3xgOGZ1zTTsssK0CAcBQwAQkZEnj+9t49PT/s3bS29RWvXlj7P8L955OUXBMgHHNtH+KbJuDPZfTD39tPaHrR8gKb15kdVeN/svn/mDKqPI8Qjnl2D+3NEYj/ysB/ibNmUXPL+znG6ePSzzHG5xtP+3Rz7VJbkgDhKGkLojpOIO1Gbb/dZuRXzPx/p+uV2Q+YnfT79YPRQ5LzjfVo5mI+4ZgLmxDZNoF6z5b0+x3HfsfskYvNZk40e+ZGs/vO7v1bh3ivsJFxf3AuJfcECMfcW0gH6hJY9npje3yNBF+9Osd/pK4cKuSDAOGYD59Q2SoBv8/y2N/OLhx5wG2rTsktRzjKWYKgjhJ4NOUvU+vt/bU8f4jZ1o0dlU9jg0eAcBw89qx5oAn4Xy74ucSWw26X5pYd9pcD3SPaz5AA4ZghbFaVMYErD2gu3NoN0aWvZdxBVjeQBAjHgaRL24NHYNX8bIPxpE8NXl9Z84AQIBwHBCuNDjoBvxG73T3BZpZ/bcqgdxkBnSVAOHaWJ60pEHj14WyD0Z/nSCkcAcKxcJZ2eYd27jQ75oPZhiPnGgu50RGOhbS1izvVyf/SaeSw+rz/08Wwi911wrHY/nZX7zavNTv81zLcaxxitnZJdzHuot4Sjl1kduG7euGuGQbjLmaTRxQeaTd3kHDsZveL1Pcls7MNxqF/lO1/3hTJq5z0hXDMiVHIrEPg2N/JMByHNP8syDryma1HgHDU8wRFzRKYdlWGwbiL2axJzSqkfg4JEI45NA3JEYHtm82O/M3swvHqg6KVM1pkAoRjkd3thr5NODS7YDzhY2Y7d3QDVfpoZoQjm0F+Cfg/ADZyL2In6pz48fxyQnlLBAjHlrCx0OAT6DE748+yCUf/G1f/321KVxEgHLvK7kHo7PyZZhtWdH7FM67NJhiPer/ZpjWd10+L8gQIR3mLci7Q/8506B+a3XS4mY93orw7J5tg9D3GtUs7oZg2ckiAcMyhabmTvHmdmQeNv56eYOb/69Jqmfd0Nj8RPP7D/OVBqx4VZDnCsSBGynfD9/aOeF/vHp////PSV5uU3GN2z2nZ7DGe+mmzndub1Ef1ohEgHIvmqHJ/1i0zO+ZDfQF3zl+bzXum9p6k/w/ME6PNjv5A33KduPpcrQ3/awUKBLiVh20gcwJ+3nHc9yqD7tzPmv3yOLPJvzB74Dyza75v9pOPVtarFmptTx9i9vR1meNghboE2HPU9abYynwv8vT/lWH41fgnwZ99ymzjqmLzpndNEyAcm0bGAh0lcNiQwQ3IO0/uaHdorDgECMfieJnPngxWOPoTvDeuziczVGdCgHDMBDMrqUog63D0nwEunl1VDjMgEAgQjoEEw8EhkFU4/uwPzPzvU9u5x3JwCLHWQSJAOA4SeFb7HoGBDke/6LP6HXBDoGkChGPTyFigowQGIhxP/ITZXacMzG+6O9p5GlMmQDgqu9MN2joVjj/5iNnEIzls7oZtJqM+Eo4ZgWY1VQi0Eo7H/a7Z8L8xu/V4s/nPmflfslIg0GEChGOHgdJckwSmjTG78T/MLvh8703hJ/yemf/2+qw/N7tod7PbfmL23C3cdtMkVqq3T4BwbJ8hLUAAAgUkQDgW0FS6BAEItE+AcGyfIS1AAAIFJEA4FtBUugQBCLRPgHBsnyEtQAACBSRAOBbQVLoEAQi0T4BwbJ8hLUAAAgUkQDgW0FS6BAEItE+AcGyfIS1AAAIFJEA4FtBUugQBCLRPgHBsnyEtQAACBSRAOBbQVLoEAQi0T4BwbJ8hLUAAAgUkQDgW0FS6BAEItE+AcGyfIS1AAAIFJEA4FtBUugQBCLRPgHBsnyEtQAACBSRAOBbQVLoEAQi0T4BwbJ8hLUAAAgUkQDgW0NRGuzTqsivs/35u19Lr77/4ZXvzrbmNLlqqt337dtu0abNt3bq16nLr1q2zei9vp9Vy6+13mGv/2p77WE9PT6vNpC730ksvl9re7Utfs82bN6fWYWJxCRCOBfV25cqVdsaZw2q+9tn3W+Vw9JDcY699atb39ubPX1Amtu9+3y4vf/D3f2g7d+4sz/Og2m//fyrPDyGcNvRwqxWwixYttrOHDbezzj7Xtm3bVl6Hj5x+xrDyOpLz+lWs8saDe9g555XaXrx4Sb9ad99zb7ntVatW95vHm+ITIBwL6vELL75U/mDvsec+9vW992v5tefX9y23Nfbqa8rEzjzr3PJ0D71773ugPG/Zu8vL88ZefW0pOD0849fChQvLdS64cGR52eTIPx94cLlecl674XjhLy4ptf25v/9SsmkjHCuQdNUEwrGgdsfh+M47i9rq5dq168rhFIejB93o0VfZDw/9dzvk0H+3J5+cXl7PEUceW1rm/31+N9u0aVN5enJkt933KNX7wq5fsR07diRnmx9yexsevsefcFLF/HbDca+9v1Fq2/eik4VwTBLprveEY0H9TobjI48+Zr531Ozr5+ePsDgcx0+4oUzMz8Nt2LCh/Nq4cWNpnh8ih8Pnf/nBv5bnx3XD+FNPP1Ou++zM58pthxE/pA5tTZs23TZs3NjvNfTUM8rzV69Z029eXDdoC+2GYWj7opGXVCz7y1tvL7f9zqJFFfPj9jt9vjPoYzh4BAjHwWM/oGtOhuPWbdvMLzA0+1qzZk05HH0PbsuWLWXdyXOW4dB0woQbyqESwqeR4T/+80HltsPIiAtHttRWcn2uPbln+sgjj3WkbV/XkqVLg2SGBSFAOBbEyGQ3li5dZgcdfIh97/s/tPXrN5Su5M6e/ao1+wp7hz/68WG2cOE7/VbjV6rD+cjPf2F3W79+fWk9X/7q10uh42Hpe53h9R//eWQ5jPquYK8vXRAJYbZ6df8LH9/45gGlZfbaez9bs2atrV3b/3Xy0NPLba5YsaJifqi/bt36ftr9zaH/+uPysqFePJx4y63l+X4hKp6XHK9onAm5J0A45t7CxjrgH+4QQH5+b9fdvlrzFeqedvqZNVcQztn5FWcvi5csKa/nttvv7Lfs4Uf0nof0tuOyfHnfxZszzz6nPCs+PL9i9JXl6fFIq+ccfS/Sw9u1eGinFc45plHpnmmEY5d4HYfjnDlv1u11CMdTmwzHRx+batddf6PdeNPEfrf2+AqrhaPPe+Chh0vL3Tzxl2Vtfg4y6Jg79+3y9Hik1XBctmxZue2pjz8RN1keJxzLKLpyhHDsEtvjcDzgn75rB33vkJqvEErNhuOCBQvtwIP+JfX1pfeuTHvb1eqcP+KisiP/9qP/LAdYeWJipNVwHDvu2lLbfi6y2k3ohGMCdpe9JRy7xHA/d+hXdoee0txr5nO/qkkoeVjtV4xPP+Ps1Nfe+3yzHHbV6twz6b7y+vw+Stf80EOTy9OSI62G4+WXjymxiK++J9smHJNEuus94Vhwv+ObrtsdT7tdJRmOMc7Zs1+xhydPsekznipNTh5W+wUen//4E9Pixcrjjej1kA17uX4lvd4yofF69Xz+XXdNKrftvziqt0xom2ExCBCOxfAxtRfjx19f/nCHAGln6EGULNXCMb6VaPLkR0qLJcNx7bq+m8uPPe7Efk37z/Xa0Vpt2Q0beu/FrDa/nel+LySlOAQIx+J4WdET/zVL+LDPmzfflixZUvHab/9/LNdJm+/T/DYdb2foKadXrKNaOB743e+XlvFlw/2FyXD0xr7xzd71+7m/5O+r/bfOfhN4rdeJJw0t6/fzqrXq+rxQ3n13ed268f2ar776Ws36yd9lh/UwzC8BwjG/3tVVHodjtafKfOuA75TDpVqDfptOM+Hov34JoTzs3PPKzaaF4/wFfbcY3X3PpHLdRkdaPefYSPucc2yEUnHrEI7F9dbicLxi9FV21dhxFa+v7vEP5SBLm+/Twv2Aje45+tNzQjj6zdKhpIWjz/vaexr23mf/ULXhIeHYMCoqNkmAcGwSWJ6qx+H4xSo3ffvhbAiyajeGh/mNhKNftAhh6o80C2X9hg22+1f2Kq8rTPfhhOv6fm64eHHfoW9cp9o44ViNDNPbJUA4tktQePk4HP3JOH61OfmKD6uT88L7Zg6rpz05vRyAzz7b9yCJEJgetH6eMi6uLYT0j358eDyr7jjhWBcRFVokQDi2CC4Pi8Xh2IlzjmedPbxft30vcfev7FkKQw83X4c/4GLzli0VD6X1af6KH1wRN+Zt1Zof143HCceYBuOdJEA4dpKmWFtxOPq5RT+3l3zFe3TJeeF9OKz2q8Fx+c57V6T33a/34RB+WB6WaXXobTVTCMdmaFG3GQKEYzO0clbXf8o37Nzz677OGX6+1XqNGHFR6Yk7ye6PvHiU3Xvv/aXJM597zs4dXn9dtfS4BtfcTJn18uxS//yJ3n4aoJPFn2zkeof/fIRt3175IN5Orou29AgQjnqeoAgCEBAgQDgKmIAECEBAjwDhqOcJiiAAAQEChKOACUiAAAT0CBCOep6gCAIQECBAOAqYgAQIQECPAOGo5wmKIAABAQKEo4AJSIAABPQIEI56nqAIAhAQIEA4CpiABAhAQI8A4ajnCYogAAEBAoSjgAlIgAAE9AgQjnqeoAgCEBAgQDgKmIAECEBAjwDhqOcJiiAAAQEChKOACUiAAAT0CBCOep6gCAIQECBAOAqYgAQIQECPAOGo5wmKIAABAQKEo4AJSIAABPQIEI56nqAIAhAQIEA4CpiABAhAQI8A4ajnCYogAAEBAoSjgAlIgAAE9AgQjnqeoAgCEBAgQDgKmIAECEBAjwDhqOcJiiAAAQEChKOACUiAAAT0CBCOep6gCAIQECBAOAqYgAQIQECPAOGo5wmKIAABAQKEo4AJSIAABPQIEI56nqAIAhAQIEA4CpiABAhAQI8A4ajnCYogAAEBAoSjgAlIgAAE9AgQjnqeoAgCEBAgQDgKmIAECEBAjwDhqOcJiiAAAQEChKOACUiAAAT0CBCOep6gCAIQECBAOAqYgAQIQECPAOGo5wmKIAABAQKEo4AJSIAABPQIEI56nqAIAhAQIEA4CpiABAhAQI8A4ajnCYogAAEBAoSjgAlIgAAE9AgQjnqeoAgCEBAgQDgKmIAECEBAjwDhqOcJiiAAAQEChKOACUiAAAT0CBCOep6gCAIQECBAOAqYgAQIQECPAOGo5wmKIAABAQKEo4AJSIAABPQIEI56nqAIAhAQIEA4CpiABAhAQI8A4ajnCYogAAEBAoSjgAlIgAAE9AgQjnqeoAgCEBAgQDgKmIAECEBAjwDhqOcJiiAAAQEChKOACUiAAAT0CBCOep6gCAIQECBAOAqYgAQIQECPAOGo5wmKIAABAQKEo4AJSIAABPQIEI56nqAIAhAQIEA4CpiABAhAQI8A4ajnCYogAAEBAoSjgAlIgAAE9AgQjnqeoAgCEBAgQDgKmIAECEBAjwDhqOcJiiAAAQEChKOACUiAAAT0CBCOep6gCAIQECBAOAqYgAQIQECPAOGo5wmKIAABAQKEo4AJSIAABPQIEI56nqAIAhAQIEA4CpiABAhAQI8A4ajnCYogAAEBAoSjgAlIgAAE9AgQjnqeoAgCEBAgQDgKmIAECEBAjwDhqOcJiiAAAQEChKOACUiAAAT0CBCOep6gCAIQECBAOAqYgAQIQECPAOGo5wmKIAABAQKEo4AJSIAABPQIEI56nqAIAhAQIEA4CpiABAhAQI8A4ajnCYogAAEBAoSjgAlIgAAE9AgQjnqeoAgCEBAgQDgKmIAECEBAjwDhqOcJiiAAAQEChKOACUiAAAT0CBCOep6gCAIQECBAOAqYgAQIQECPAOGo5wmKIAABAQKEo4AJSIAABPQIEI56nqAIAhAQIEA4CpiABAhAQI8A4ajnCYogAAEBAoSjgAlIgAAE9AgQjnqeoAgCEBAgQDgKmIAECEBAjwDhqOcJiiAAAQEChKOACUiAAAT0CBCOep6gCAIQECBAOAqYgAQIQECPAOGo5wmKIAABAQKEo4AJSIAABPQIEI56nqAIAhAQIEA4CpiABAhAQI8A4ajnCYogAAEBAoSjgAlIgAAE9AgQjnqeoAgCEBAgQDgKmIAECEBAjwDhqOcJiiAAAQEChKOACUiAAAT0CBCOep6gCAIQECBAOAqYgAQIQECPAOGo5wmKIAABAQKEo4AJSIAABPQIEI56nqAIAhAQIEA4CpiABAhAQI8A4ajnCYogAAEBAoSjgAlIgAAE9AgQjnqeoAgCEBAgQDgKmIAECEBAjwDhqOcJiiAAAQEChKOACUiAAAT0CBCOep6gCAIQECBAOAqYgAQIQECPAOGo5wmKIAABAQKEo4AJSIAABPQIEI56nqAIAhAQIEA4CpiABAhAQI8A4ajnCYogAAEBAoSjgAlIgAAE9AgQjnqeoAgCEBAgQDgKmIAECEBAjwDhqOcJiiAAAQEChKOACUiAAAT0CBCOep6gCAIQECBAOAqYgAQIQECPAOGo5wmKIImgDukAABZMSURBVAABAQKEo4AJSIAABPQIEI56nqAIAhAQIEA4CpiABAhAQI8A4ajnCYogAAEBAoSjgAlIgAAE9AgQjnqeoAgCEBAgQDgKmIAECEBAjwDhqOcJiiAAAQEChKOACUiAAAT0CBCOep6gCAIQECBAOAqYgAQIQECPAOGo5wmKIAABAQKEo4AJSIAABPQIEI56nqAIAhAQIEA4CpiABAhAQI8A4ajnCYogAAEBAoSjgAlIgAAE9AgQjnqeoAgCEBAgQDgKmIAECEBAjwDhqOcJiiAAAQEChKOACUiAAAT0CBCOep6gCAIQECBAOAqYgAQIQECPAOGo5wmKIAABAQKEo4AJSIAABPQIEI56nqAIAhAQIEA4CpiABAhAQI8A4ajnCYogAAEBAoSjgAlIgAAE9AgQjnqeoAgCEBAgQDgKmIAECEBAjwDhqOcJiiAAAQEChKOACUiAAAT0CBCOep6gCAIQECBAOAqYgAQIQECPAOGo5wmKIAABAQKEo4AJSIAABPQIEI56nqAIAhAQIEA4CpiABAhAQI8A4ajnCYogAAEBAoSjgAlIgAAE9AgQjnqeoAgCEBAgQDgKmIAECEBAjwDhqOcJiiAAAQEChKOACUiAAAT0CBCOep6gCAIQECBAOAqYgAQIQECPAOGo5wmKIAABAQKEo4AJSIAABPQIEI56nqAIAhAQIEA4CpiABAhAQI8A4ajnCYogAAEBAoSjgAlIgAAE9AgQjnqeoAgCEBAgQDgKmIAECEBAjwDhqOcJiiAAAQEChKOACUiAAAT0CBCOep6gCAIQECBAOAqYgAQIQECPAOGo5wmKIAABAQKEo4AJSIAABPQIEI56nqAIAhAQIEA4CpiABAhAQI8A4ajnCYogAAEBAoSjgAlIgAAE9AgQjnqeoAgCEBAgQDgKmIAECEBAjwDhqOcJiiAAAQEChKOACUiAAAT0CBCOep6gCAIQECBAOAqYgAQIQECPAOGo5wmKIAABAQKEo4AJSIAABPQIEI56nqAIAhAQIEA4CpiABAhAQI8A4ajnCYogAAEBAoSjgAlIgAAE9AgQjnqeoAgCEBAgQDgKmIAECEBAjwDhqOcJiiAAAQEChKOACUiAAAT0CBCOep6gCAIQECBAOAqYgAQIQECPAOGo5wmKIAABAQKEo4AJSIAABPQIEI56nqAIAhAQIEA4CpiABAhAQI8A4ajnCYogAAEBAoSjgAlIgAAE9AgQjnqeoAgCEBAgQDgKmIAECEBAjwDhqOcJiiAAAQEChKOACUiAAAT0CBCOep6gCAIQECBAOAqYgAQIQECPAOGo5wmKIAABAQKEo4AJSIAABPQIEI56nqAIAhAQIEA4CpiABAhAQI8A4ajnCYogAAEBAoSjgAlIgAAE9AgQjnqeoAgCEBAgQDgKmIAECEBAjwDhqOcJiiAAAQEChKOACUiAAAT0CBCOep6gCAIQECBAOAqYgAQIQECPAOGo5wmKIAABAQKEo4AJSIAABPQIEI56nqAIAhAQIEA4CpiABAhAQI8A4ajnCYogAAEBAoSjgAlIgAAE9AgQjnqeoAgCEBAgQDgKmIAECEBAjwDhqOcJiiAAAQEChKOACUiAAAT0CBCOep6gCAIQECBAOAqYgAQIQECPAOGo5wmKIAABAQKEo4AJSIAABPQIEI56nqAIAhAQIEA4CpiABAhAQI8A4ajnCYogAAEBAoSjgAlIgAAE9AgQjnqeoAgCEBAgQDgKmIAECEBAjwDhqOcJiiAAAQEChKOACUiAAAT0CBCOep6gCAIQECBAOAqYgAQIQECPAOGo5wmKIAABAQKEo4AJSIAABPQIEI56nqAIAhAQIEA4CpiABAhAQI8A4ajnCYogAAEBAoSjgAlIgAAE9AgQjnqeoAgCEBAgQDgKmIAECEBAjwDhqOcJiiAAAQEChKOACUiAAAT0CBCOep6gCAIQECBAOAqYgAQIQECPAOGo5wmKIAABAQKEo4AJSIAABPQIEI56nqAIAhAQIEA4CpiABAhAQI8A4ajnCYogAAEBAoSjgAlIgAAE9AgQjnqeoAgCEBAgQDgKmIAECEBAjwDhqOcJiiAAAQEChKOACUiAAAT0CBCOep6gCAIQECBAOAqYgAQIQECPAOGo5wmKIAABAQKEo4AJSIAABPQIEI56nqAIAhAQIEA4CpiABAhAQI8A4ajnCYogAAEBAoSjgAlIgAAE9AgQjnqeoAgCEBAgQDgKmIAECEBAjwDhqOcJiiAAAQEChKOACUiAAAT0CBCOep6gCAIQECBAOAqYgAQIQECPAOGo5wmKIAABAQKEo4AJSIAABPQIEI56nqAIAhAQIEA4CpiABAhAQI8A4ajnCYogAAEBAoSjgAlIgAAE9AgQjnqeoAgCEBAgQDgKmIAECEBAjwDhqOcJiiAAAQEChKOACUiAAAT0CBCOep6gCAIQECBAOAqYgAQIQECPAOGo5wmKIAABAQKEo4AJSIAABPQIEI56nqAIAhAQIEA4CpiABAhAQI8A4ajnCYogAAEBAoSjgAlIgAAE9AgQjnqeoAgCEBAgQDgKmIAECEBAjwDhqOcJiiAAAQEChKOACUiAAAT0CBCOep6gCAIQECBAOAqYgAQIQECPAOGo5wmKIAABAQKEo4AJSIAABPQIEI56nqAIAhAQIEA4CpiABAhAQI8A4ajnCYogAAEBAoSjgAlIgAAE9AgQjnqeoAgCEBAgQDgKmIAECEBAjwDhqOcJiiAAAQEChKOACUiAAAT0CBCOep6gCAIQECBAOAqYgAQIQECPAOGo5wmKIAABAQKEo4AJSIAABPQIEI56nqAIAhAQIEA4CpiABAhAQI8A4ajnCYogAAEBAoSjgAlIgAAE9AgQjnqeoAgCEBAgQDgKmIAECEBAjwDhqOcJiiAAAQEChKOACUiAAAT0CBCOep6gCAIQECBAOAqYgAQIQECPAOGo5wmKIAABAQKEo4AJSIAABPQIEI56nqAIAhAQIEA4CpiABAhAQI8A4ajnCYogAAEBAoSjgAlIgAAE9AgQjnqeoAgCEBAgQDgKmIAECEBAjwDhqOcJiiAAAQEChKOACUiAAAT0CBCOep6gCAIQECBAOAqYgAQIQECPAOGo5wmKIAABAQKEo4AJSIAABPQIEI56nqAIAhAQIEA4CpiABAhAQI8A4ajnCYogAAEBAoSjgAlIgAAE9AgQjnqeoAgCEBAgQDgKmIAECEBAjwDhqOcJiiAAAQEChKOACUiAAAT0CBCOep6gCAIQECBAOAqYgAQIQECPAOGo5wmKIAABAQKEo4AJSIAABPQIEI56nqAIAhAQIEA4CpiABAhAQI8A4ajnCYogAAEBAoSjgAlIgAAE9AgQjnqeoAgCEBAgQDgKmIAECEBAjwDhqOcJiiAAAQEChKOACUiAAAT0CBCOep6gCAIQECBAOAqYgAQIQECPAOGo5wmKIAABAQKEo4AJSIAABPQIEI56nqAIAhAQIEA4CpiABAhAQI8A4ajnCYogAAEBAoSjgAlIgAAE9AgQjnqeoAgCEBAgQDgKmIAECEBAjwDhqOcJiiAAAQEChKOACUiAAAT0CBCOep6gCAIQECBAOAqYgAQIQECPAOGo5wmKIAABAQKEo4AJSIAABPQIEI56nqAIAhAQIEA4CpiABAhAQI8A4ajnCYogAAEBAoSjgAlIgAAE9AgQjnqeoAgCEBAgQDgKmIAECEBAjwDhqOcJiiAAAQEChKOACUiAAAT0CBCOep6gCAIQECBAOAqYgAQIQECPAOGo5wmKIAABAQKEo4AJSIAABPQIEI56nqAIAhAQIEA4CpiABAhAQI8A4ajnCYogAAEBAoSjgAlIgAAE9AgQjnqeoAgCEBAgQDgKmIAECEBAjwDhqOcJiiAAAQEChKOACUiAAAT0CBCOep6gCAIQECBAOAqYgAQIQECPAOGo5wmKIAABAQKEo4AJSIAABPQIEI56nqAIAhAQIEA4CpiABAhAQI8A4ajnCYogAAEBAoSjgAlIgAAE9AgQjnqeoAgCEBAgQDgKmIAECEBAjwDhqOcJiiAAAQEChKOACUiAAAT0CBCOep6gCAIQECBAOAqYgAQIQECPQK7DcfXq1fbcc8/ZjBkz7J133mmK7rp16+z555+3p556ypYsWZK67LZt2+yll14q1Vm2bFlqnUbaCQtu3brVNm3aFN5WHS5cuNCqvXp6emznzp2l+T6eLFu2bCnN8+lr166t2k5o3/V4O/4+rT1n4PMaKfG6q9X3trzeQJZ3333XXn/99YFcRWrbGzZsSJ0eT2ykTqjv7GfPnm3Tpk2zefPmhclVh4sXL27YqwULFtiTTz5pr732Wml7qtqoma1atapqu/658M/fyy+/bDt27OjXTNjG0oaLFi3qV1fxTW7D8fLLL7crr7zS3n77bfONYtKkSTZq1Ch766236nKeOHFiqe6ll15aasOXu+KKK/ot5xuNT/fX2LFjS8Orr766X52bb765bju+wIsvvlhq39tqJMTDetOG/oHxkPV527dv76fH3/iG6PO8PPvss6XxtHbCtDfeeKPUjr/3tpPFgya0l5yXfO8fDq87ffr05KzS+/vvv780Py2EUxdocaJ72ajmFlfRbzEPmcsuu6zmOhupEzc6Z86cUnvej2uuuaY8nua5L+dMvW4j/fbtPtmuh2WyPPbYY+U209oNn4tx48ZZaHPu3LnlZoKetOGNN95Yrqc6krtw9I3DYVfb+xg9erS98sorVXmvWLGitPyaNWvKdXxPzNv0b79Q/P2DDz4Y3pY3vhC+tdrxb/tQvB3fcB544IHSOhoNxzvuuCM0UTFsNByTC/qXietJlsC03XD0dn0d/sWVVpyDf5CKVJynB2MIkrS+NVInuZwv43tkcfFpvn2nFQ8qn+d1ahWvk/QnfMnHy4Uv1mp74GHnIQ7ru+66q+76N2/eXLdOrGMwx3MXjm6uHy56uemmm0qgw8YXQPr7ansnDz30UKo5voyb62XlypVV61x33XWlOh6caRuiT7v77ruDFPPD7lB8XtHD0T9M3k//wonLxo0bS9N9TzQuHsj+xXHfffeVfQ3zZ82aVTrs8z1Sn++nUULxUyE+zZeNGft83xv2ZZPlzTfftHvuuccefvjhir1uP9wNy/iXq3s4c+bMZBMV7/3D7iXsNVdUMLNG6sTLVdtb9y/MtG3OD7l9uutOmx+3ffvtt1f0y7kml/P3zqta8b1zD+S4hC/teFpy3JfxPeE8lNyF41VXXVXi6ofTvicSik8Pe3q+kfu5yGaKbwx++Oul2kYWDiNqtevt+HnKtOLzih6O3m/vZ/LQOu3LJEzz0xWBrR9+huLthENk3zvz0ydefO/T5/kwLHfnnXeGxeyGG26o+LCHwz5fJuxBx9uI++Jt+svnh3b9fSOlVjiG5RupE+qmDX3HwDkki2v0w+Jq222yfvK9M4/76ecRw3v/0vCdheRRhevwoE0WX86PqtJKOPQPOzdpdZSm5Soc/Xza448/XuI3fvz4fofBfmEhmOJGBnMbge0f5Lj+Cy+80O99aCPtQxfm+TDZTjzPx30d3RCOHnYxz9D32267rYzE/fI6vkcZiu/xxcv5uL/io4BwWBZf2PKQi5dL+uQf4ni+r89PocTTQjj6l24oS5cu7VcnTE8bNhJ8jdRJa9un+Wkk15u8oHP99deXwtzrNBOOHoDe5ylTppTa9c9WKBMmTCiFcPhC8fX664knnghVSjsm8RFSmOH1YoZhug/d/+S5/Xi+2niuwtGvLntwefFv9/jkbxKsm9RI8XOPXje+Gt1KOKa1k1y/r6fRcPS6yVc4/xMOX+LzPWFd8QWZMC0Mwx5TeB+GnTzn6G2GAAvt+9D7Egdh2COM64R6YQ/Rl0l+mILWanvn3kYyHL2d8KUar8+n+2G2lxCO8Xwf9zrJQErW8feNBF8jddLaDjqSYZQ8HG4mHK+99try9uXnIOMvoHDu0vcYQ/GjKmcRigdnUo/P8zrVwtHn+RdOXkquwtF3x8Ohs19xfvrpp8uc3ZBwKLd+/XobM2ZMeV61kbCHmfzgVAtH/5aON5DQbrV2wvww9GUbDce8XpCJ+xqCx7nFp0C8jrOo9nrmmWdKzfj8ZDj6jHCxwOf7hzxcJAvrTgvH+fPnh9nloW8jvpfkRTkc/RDWv9iSxfvvgRhKM+EYlvGhn0f3tkJx5n5aIVm8jrP3Uisc0658+2csXkeybcX3uQrHYIoPkxdN3KwQln7CPex91ILuZsWHeqFuuI0ivA9D/4ZNM9inpZ1/CcuFodfrRDiGMPY9yGTxDTNNo9ert+eYdgdAfP4pua5a7ydPnlzW4XqmTp3ar7pP8w+l9yX58j0sL14nLRxDQ6433AUQn4tLC8dkgHobvofkwe1FNRy9X3HfQt9vueWWEh/vQ3iF7dPfp23XYdnkMByyh+m+fNrOhfsRzu26JteQLF4nPuUR5vv0+G6QMF15mLtwdNPDVUU/tHLo/rr33ntLnP0qaXIvJc0AX8Y/RGklHLaGq4yhji8TrmjH06q1E+qEoS/fiXD09ryt5K0ePr3Wec9q4Rja89tRksVPZfi6mi3h9ijfY0tbPhlgae37cslw9PCPL6T4cn6k4HVDqCbb9nlpX14+PTBUDEf/8qi2Lfu273tx8cuv3nuffFp8O1nM1uf7Dx/ikjwN4st7vWTxaeEKtl8ATWrz0w9py/mRQNr0ZPtq73MXjg7Qv7Xiq5oBaviQJEMtzA9D/4atd7+dGx+ujPtyYW/Sfy0Qiuuo106o60PfQDoVjn446O3F5/FCqIe9oXjdPl4rHMNtUfFtMaG9cOiZbK/ee9cXXsm64dxhHFo+zbn70IsvmwzHcJEk9iF8SYZ1JMPRP9DeVrynnby3b7DDMb7Y4f0IP1QIfWpkmHZY7Re54lugfK/QGcfnGKtdQHNGoYQfWYT34eglvpDjXjnnZPH1hT3O5Dzl97kMRwfqe5BuhBsbPgweZrHpaeBDyPmyaa94GTc1rhMfGoYrq/H8eDxuJ4z7/E6Fo7fpvzKI1+njyT3bsG4f1gpHnx8CI24zDq+4rUbGA6PkvY1h2XDxKF6f34caik9PhqPPC7cAxcvFe5Nhewjt+DD8Oics497GXyyDGY6+zbqu+NA/6EwbVrsQmRaOvrz3NS4hDEPbPj95KOxfPmF+GCYvpnigh3k+9HY8NOPiffJ5eSy5DccA2/d0/JuxXiiG+s0O/QOkfl+WM4j3+JrtY7J+p9tLtp9874dj8S+WkvOrvXdfmu23r6eRq8/V1jlQ0+sd7bS6Xj+9kfbZ8On+uam3XufrR2S1ivsQf9HUqpunebkPxzzBRisEIJAfAoRjfrxCKQQgkCEBwjFD2KwKAhDIDwHCMT9eoRQCEMiQAOGYIWxWBQEI5IcA4Zgfr1AKAQhkSIBwzBA2q4IABPJDgHDMj1cohQAEMiRAOGYIm1VBAAL5IUA45scrlEIAAhkSIBwzhM2qIACB/BAgHPPjFUohAIEMCRCOGcJmVRCAQH4IEI758QqlEIBAhgQIxwxhsyoIQCA/BAjH/HiFUghAIEMChGOGsFkVBCCQHwKEY368QikEIJAhAcIxQ9isCgIQyA+B/w9mq++e556K4AAAAABJRU5ErkJggg==;" vertex="1" parent="1">
          <mxGeometry x="-250" y="60" width="200" height="404.89" as="geometry" />
        </mxCell>
      </root>
    </mxGraphModel>
  </diagram>
</mxfile>
